<svg viewBox="0 0 1024 1024" version="1.1" xmlns="http://www.w3.org/2000/svg">
  <path d="M956.8 433.493333H67.2C44.8 433.493333 25.6 416.426667 25.6 394.026667V198.826667c0-14.933333 8.533333-29.866667 20.266667-36.266667L494.933333 5.493333c12.8-6.4 27.733333-6.4 40.533334 0l448 157.866667c12.8 4.266667 19.2 21.333333 19.2 36.266667v194.133333c0 21.333333-19.2 39.733333-45.866667 39.733333z" fill="#4C6EF5"/>
  <path d="M113.066667 369.493333h797.866666V198.826667L512 59.733333 113.066667 198.826667v170.666666z" fill="#FFFFFF"/>
  <path d="M956.8 1018.026667H67.2c-21.333333 0-41.6-17.066667-41.6-39.733334v-194.133333c0-21.333333 19.2-39.733333 41.6-39.733333h889.6c21.333333 0 41.6 17.066667 41.6 39.733333v194.133333c0 21.333333-19.2 39.733333-41.6 39.733334z m-847.466667-78.933334h805.866667v-115.2H109.333333v115.2z" fill="#4C6EF5"/>
  <path d="M956.8 665.6H67.2c-21.333333 0-41.6-17.066667-41.6-39.733333v-194.133334c0-21.333333 19.2-39.733333 41.6-39.733333h889.6c21.333333 0 41.6 17.066667 41.6 39.733333v194.133334c0 21.333333-19.2 39.733333-41.6 39.733333z m-847.466667-78.933333h805.866667v-115.2H109.333333v115.2z" fill="#4C6EF5"/>
</svg> 