<svg viewBox="0 0 48 48" fill="none" xmlns="http://www.w3.org/2000/svg">
  <path d="M35.8 23.6c-.2-.8-.4-1.7-.7-2.5-.9-2.3-2.1-4.3-3.9-6-3.8-3.7-8.4-5.1-13.5-4.4-3.5.5-6.5 2-9 4.5-3.2 3.2-4.6 7.1-3.8 11.6.5 2.9 1.9 5.3 4 7.2.6.6 1.3 1.1 2 1.6.2.1.3.2.3.5 0 .7-.1 1.4-.2 2.1 0 .2 0 .4.2.5.2.1.4 0 .5-.1.9-.5 1.9-1.1 2.8-1.6.5-.3.9-.2 1.4 0 2.1.7 4.2.9 6.4.7 3.8-.3 7.1-1.8 9.9-4.4 2.9-2.8 4.4-6.2 4.1-10.2-.1-.3-.2-.7-.5-1zm-15.5-1.8c-.2 1.1-1.2 1.8-2.3 1.7-1.2-.1-2-1-1.9-2.2.1-1.1 1.1-1.9 2.2-1.8 1.3.1 2.1 1.1 2 2.3zm7.9 1.7c-1.2.1-2.2-.7-2.3-1.8-.1-1.1.7-2.1 1.9-2.2 1.1-.1 2.1.7 2.2 1.8.1 1.2-.7 2.1-1.8 2.2z" fill="#2AAE67"/>
  <path d="M24.5 4.5c11 0 20 9 20 20s-9 20-20 20-20-9-20-20 9-20 20-20zm0-2c-12.1 0-22 9.9-22 22s9.9 22 22 22 22-9.9 22-22-9.9-22-22-22z" fill="#2AAE67"/>
</svg> 