<svg viewBox="0 0 1024 1024" version="1.1" xmlns="http://www.w3.org/2000/svg">
  <path d="M1024 686.933333c0-128-117.333333-234.666667-277.333333-234.666666-166.4 0-277.333333 106.666667-277.333334 234.666666 0 128 110.933333 234.666667 277.333334 234.666667 32 0 64-8.533333 96-16l87.466666 48-23.466666-80C977.066667 810.666667 1024 754.133333 1024 686.933333z" fill="#2AAE67"/>
  <path d="M693.333333 347.733333c10.666667 0 19.2 0 29.866667 2.133334-27.733333-128-162.133333-224-315.733333-224-172.8 0-315.733333 117.333333-315.733334 266.666666 0 85.333333 46.933333 157.866667 125.866667 213.333334l-32 93.866666 106.666667-53.333333c40.533333 8.533333 72.533333 16 110.933333 16 8.533333 0 19.2 0 29.866667-2.133333-8.533333-23.466667-10.666667-46.933333-10.666667-72.533334 0-138.666667 119.466667-241.066667 271.466667-239.466666z" fill="#2AAE67"/>
  <path d="M616.533333 640c-19.2 0-32-12.8-32-32s12.8-32 32-32 32 12.8 32 32-12.8 32-32 32z m179.2 0c-19.2 0-32-12.8-32-32s12.8-32 32-32 32 12.8 32 32-12.8 32-32 32z" fill="#FFFFFF"/>
  <path d="M477.866667 264.533333c23.466667 0 40.533333 16 40.533333 40.533334s-16 40.533333-40.533333 40.533333c-23.466667 0-46.933333-16-46.933334-40.533333 0-23.466667 23.466667-40.533333 46.933334-40.533334z M243.2 345.6c-23.466667 0-46.933333-16-46.933333-40.533333 0-23.466667 23.466667-40.533333 46.933333-40.533334s40.533333 16 40.533333 40.533334c0 23.466667-16 40.533333-40.533333 40.533333z" fill="#FFFFFF"/>
</svg> 